# xmcd CD database file
#
# Track frame offsets:
#	150
#	16838
#	34492
#	70717
#	89435
#	110470
#	121694
#	132900
#	157201
#	167565
#	188798
#	201203
#	211547
#	224001
#	239269
#	250250
#	262949
#	302626
#	315456
#	326151
#
# Disc length: 4493 seconds
#
# Revision: 0
# Processed by: cddbd v1.4PL0 Copyright (c) Steve Scherf et al.
# Submitted via: CDex 1.40Beta9
#
DISCID=19118b14
DTITLE=Stevie Ray Vaughan - Coletânea
DYEAR=2003
DGENRE=Blues
TTITLE0=Pride and Joy
TTITLE1=Die To Live
TTITLE2=Voodoo Chile
TTITLE3=Crossfire
TTITLE4=The Sky is Crying
TTITLE5=Life By The Drop
TTITLE6=Whan
TTITLE7=Texas Flood
TTITLE8=Boot Hill
TTITLE9=Tightrope
TTITLE10=Scratch-N-Sniff
TTITLE11=Lenny
TTITLE12=Let Me Love You Baby
TTITLE13=Love Me Darlin'
TTITLE14=Love Struck Baby
TTITLE15=Mary Had a Little Lamb
TTITLE16=Riviera Paradise
TTITLE17=Tell Me
TTITLE18=Travis Walk
TTITLE19=House is Rockin
EXTD=YEAR: 2003 ID3G: 0
EXTT0=
EXTT1=
EXTT2=
EXTT3=
EXTT4=
EXTT5=
EXTT6=
EXTT7=
EXTT8=
EXTT9=
EXTT10=
EXTT11=
EXTT12=
EXTT13=
EXTT14=
EXTT15=
EXTT16=
EXTT17=
EXTT18=
EXTT19=
PLAYORDER=
